<svg id="Layer_1" data-name="Layer 1" xmlns="http://www.w3.org/2000/svg" viewBox="0 0 198 126.06"><defs><style>.cls-1{fill:#fff;}</style></defs><path class="cls-1" d="M53.67,1.73H85.26v76.4c0,12.54-1.34,21.9-4.18,27.92C75.4,117.92,62.86,127.78,43,127.78c-24.08,0-42-14.88-42-41.29v-.84H34.6c.51,9.86,3.52,14.38,9.54,14.38,6.18,0,9.53-3.68,9.53-15Z" transform="translate(-1 -1.73)"/><path class="cls-1" d="M107.89,125.44V1.73h39.62c8.86,0,15.38.49,19.72,1.5C181.28,6.41,193,17.27,193,34c0,10.54-5,19.89-14.37,25.08C192.15,63.75,199,73.62,199,87.82c0,11.87-5,22.74-14.38,29.26-9.69,6.86-16,8.36-35.61,8.36Zm42.8-76.74c7.85,0,12-3.34,12-9.86s-4-9.36-11.87-9.36h-12.7V48.7Zm3.67,49c8.87,0,14.38-3.84,14.38-11.87,0-7.19-4.85-10.7-14.21-10.7H138.15V97.69Z" transform="translate(-1 -1.73)"/></svg>